<?xml version="1.0" standalone="no"?>
<!DOCTYPE svg PUBLIC "-//W3C//DTD SVG 20010904//EN"
 "http://www.w3.org/TR/2001/REC-SVG-20010904/DTD/svg10.dtd">
<svg version="1.0" xmlns="http://www.w3.org/2000/svg"
 width="561.000000pt" height="559.000000pt" viewBox="0 0 561.000000 559.000000"
 preserveAspectRatio="xMidYMid meet">

<g transform="translate(0.000000,559.000000) scale(0.100000,-0.100000)"
fill="#000000" stroke="none">
<path d="M0 2795 l0 -2795 2805 0 2805 0 0 2795 0 2795 -2805 0 -2805 0 0
-2795z m3125 2755 c346 -40 684 -140 965 -288 214 -113 314 -177 304 -194 -4
-7 -2 -8 5 -4 6 4 35 -8 66 -29 53 -35 71 -53 40 -42 -18 7 -30 -9 -14 -19 8
-5 9 -3 4 7 -6 11 -5 12 5 2 9 -8 18 -9 25 -3 7 6 11 3 12 -11 1 -11 -2 -17
-8 -14 -5 4 -9 1 -9 -4 0 -6 -8 -11 -17 -10 -11 0 -13 3 -5 6 18 7 15 19 -6
20 -14 1 -19 -7 -20 -38 -2 -24 2 -39 9 -39 6 0 9 7 5 15 -7 18 10 20 21 3 15
-24 10 -58 -8 -58 -10 0 -19 -3 -22 -7 -2 -5 -2 -3 -1 4 2 7 -1 15 -6 18 -6 4
-10 -5 -10 -19 0 -14 -4 -28 -10 -31 -5 -3 -10 -15 -10 -26 0 -10 -4 -19 -10
-19 -5 0 1 -15 13 -34 13 -21 26 -31 31 -25 13 12 43 11 51 -1 3 -5 0 -7 -8
-4 -21 8 -44 -23 -28 -39 9 -9 14 -9 22 3 8 11 9 9 4 -9 -5 -16 -4 -21 4 -17
6 4 11 2 11 -4 0 -6 5 -8 11 -5 6 4 8 14 5 22 -4 8 -1 11 5 8 6 -4 8 -13 5
-21 -7 -18 3 -46 14 -39 5 3 11 -4 15 -15 3 -11 11 -20 17 -20 5 0 8 6 5 13
-3 7 2 13 12 13 9 0 17 -8 17 -17 0 -10 -6 -15 -13 -12 -7 3 -13 0 -13 -6 0
-16 -146 110 -153 132 -3 10 -10 16 -15 15 -14 -4 -202 134 -196 144 3 5 0 16
-8 25 -12 15 -11 15 9 4 14 -7 20 -17 17 -26 -5 -11 -2 -13 10 -9 12 4 13 10
6 24 -15 28 -12 33 12 27 19 -5 20 -4 6 9 -12 13 -20 14 -37 5 -11 -7 -21 -9
-21 -6 0 3 -6 0 -14 -7 -13 -11 -13 -15 1 -25 9 -7 14 -16 10 -20 -4 -3 -15 1
-24 9 -10 9 -37 25 -60 37 -24 12 -43 24 -43 27 0 3 5 2 12 -2 7 -4 8 -3 4 5
-4 6 -11 9 -16 6 -4 -2 -50 18 -102 45 -243 128 -519 220 -803 267 -158 26
-602 26 -760 0 -426 -71 -790 -231 -1148 -504 -93 -72 -272 -241 -357 -338
-90 -103 -215 -280 -281 -400 -155 -280 -251 -551 -311 -875 -21 -113 -23
-152 -22 -420 l1 -295 36 -175 c31 -148 66 -264 142 -475 7 -19 7 -19 -6 -2
-13 15 -14 13 -15 -20 -1 -21 1 -30 3 -21 8 33 28 19 55 -38 21 -46 24 -60 15
-75 -10 -17 -13 -17 -29 -2 -16 14 -16 13 -5 -16 l12 -32 21 26 20 26 26 -53
c18 -36 23 -54 15 -57 -7 -2 -14 -8 -17 -12 -3 -5 -12 2 -19 14 -13 20 -13 21
1 9 13 -10 17 -10 22 3 3 9 2 13 -3 10 -5 -3 -12 -1 -16 5 -3 5 -1 10 5 10 8
0 7 6 -1 21 -15 29 -29 7 -23 -38 2 -19 -3 -47 -11 -62 -8 -16 -12 -31 -9 -33
2 -3 -2 -11 -11 -18 -21 -18 -20 -60 3 -61 10 0 7 -4 -11 -11 -31 -11 -62 -4
-51 13 4 8 0 8 -15 0 -15 -8 -20 -18 -16 -34 5 -21 -9 -57 -18 -47 -12 13 -97
163 -97 171 0 10 -18 45 -36 69 -36 48 -147 348 -193 520 -102 383 -114 879
-30 1273 10 48 28 120 40 160 13 40 24 80 26 91 8 42 109 299 159 402 236 488
627 920 1072 1187 406 244 805 377 1247 417 115 10 379 5 510 -10z m1449 -612
c-3 -5 0 -8 7 -6 8 1 25 -6 37 -17 82 -69 85 -72 72 -80 -9 -5 -11 -4 -6 3 8
14 5 15 -19 6 -10 -4 -13 -9 -6 -13 6 -4 1 -12 -12 -20 -20 -13 -21 -13 -8 2
7 10 10 17 5 17 -5 0 -1 7 9 14 13 10 15 16 6 22 -7 4 -17 0 -24 -9 -7 -10
-15 -17 -18 -17 -7 0 -21 61 -18 80 2 13 1 13 -9 0 -9 -13 -12 -12 -22 5 -19
31 -20 49 -2 34 7 -6 11 -16 8 -21z m12 -70 c-1 -32 -16 -39 -16 -8 0 18 -3
19 -20 10 -14 -7 -20 -7 -20 0 0 5 7 10 15 10 8 0 15 4 15 8 0 5 6 9 14 9 8 0
13 -11 12 -29z m145 -55 c13 -17 13 -17 -6 -3 -11 8 -22 16 -24 17 -2 2 0 3 6
3 6 0 17 -8 24 -17z m-46 -13 c-27 -12 -43 -12 -25 0 8 5 22 9 30 9 10 0 8 -3
-5 -9z m97 -27 c20 -18 25 -38 7 -27 -6 3 -16 0 -21 -7 -7 -10 -7 -7 -3 9 4
13 2 22 -4 22 -6 0 -11 -5 -11 -12 0 -6 -2 -9 -5 -6 -6 6 5 38 13 38 3 0 14
-7 24 -17z m78 -78 c13 -14 21 -25 18 -25 -8 0 -48 36 -48 44 0 10 6 7 30 -19z
m70 -86 c0 -5 -11 2 -25 15 -14 13 -25 26 -25 30 0 3 11 -4 25 -16 14 -12 25
-25 25 -29z m-320 27 c0 -3 -4 -8 -10 -11 -5 -3 -10 -1 -10 4 0 6 5 11 10 11
6 0 10 -2 10 -4z m340 -56 c0 -5 -4 -10 -10 -10 -5 0 -10 5 -10 10 0 6 5 10
10 10 6 0 10 -4 10 -10z m40 -35 l25 -30 -27 24 c-16 14 -28 29 -28 34 0 6 1
8 3 6 1 -2 13 -17 27 -34z m-305 7 c-17 -11 -17 -55 0 -48 10 3 12 0 8 -11 -5
-12 -3 -14 7 -8 8 5 11 4 6 -3 -7 -12 43 -64 56 -56 4 3 8 -2 8 -11 0 -9 16
-33 34 -53 19 -20 33 -39 30 -41 -3 -3 -32 26 -66 63 -34 38 -81 87 -105 109
-24 22 -43 44 -43 49 0 5 7 2 16 -6 8 -9 21 -16 27 -16 7 0 6 4 -3 10 -13 9
-13 11 0 20 17 11 41 14 25 2z m358 -67 c4 -8 3 -16 -1 -19 -4 -3 -9 4 -9 15
-2 23 3 25 10 4z m-1953 -111 c66 -65 80 -74 112 -74 42 0 73 26 83 71 3 15
14 30 23 34 9 3 67 5 129 4 l113 -1 0 -244 0 -244 -130 0 -130 0 0 43 c0 60
-17 79 -77 84 -61 6 -81 -3 -118 -58 -23 -32 -31 -57 -36 -116 -4 -41 -9 -76
-11 -78 -2 -1 -94 -5 -205 -7 l-203 -5 0 49 c0 144 -77 233 -186 212 -33 -6
-33 -6 -37 -73 -2 -36 -4 36 -5 162 -1 146 2 227 8 227 6 0 10 -10 10 -23 0
-20 6 -22 54 -25 53 -3 54 -3 102 49 27 29 59 64 72 77 l23 24 167 -7 167 -7
75 -74z m1712 41 c3 -13 1 -22 -3 -19 -9 5 -13 44 -5 44 2 0 6 -11 8 -25z
m-2474 -262 l-3 -248 -30 -3 c-33 -4 -57 19 -48 46 3 12 2 13 -4 5 -14 -20
-29 0 -30 40 0 21 -3 40 -6 43 -3 3 -5 -15 -4 -40 2 -32 8 -49 22 -60 11 -8
17 -17 13 -21 -6 -7 -67 32 -115 74 -22 18 -23 27 -23 156 0 135 0 136 28 162
15 14 37 32 50 40 12 9 22 21 22 28 0 18 16 23 78 24 l52 1 -2 -247z m-715
119 c68 -23 126 -61 185 -121 62 -63 87 -121 87 -201 0 -55 -6 -77 -39 -142
-21 -43 -42 -75 -47 -72 -5 3 -6 -2 -3 -10 3 -9 2 -16 -4 -16 -6 0 -12 4 -14
9 -1 5 -12 3 -23 -6 -20 -15 -19 -15 3 -8 22 6 23 4 19 -24 -5 -32 -42 -91
-57 -91 -5 0 -14 8 -19 18 -6 9 -11 12 -11 6 0 -5 5 -15 11 -21 14 -14 -68
-65 -178 -110 -78 -32 -98 -36 -178 -37 -82 0 -95 3 -152 33 -111 58 -184 157
-199 268 -7 58 3 191 16 213 8 13 12 12 24 -5 9 -11 13 -26 11 -33 -3 -7 -1
-11 4 -8 4 3 21 -8 36 -24 25 -26 26 -31 14 -47 -13 -16 -12 -17 2 -5 15 11
29 -2 110 -97 52 -60 100 -112 108 -116 10 -4 47 26 110 88 88 85 142 134 229
210 18 15 32 33 31 40 0 9 -2 9 -6 -1 -3 -8 -38 19 -97 76 -50 49 -111 106
-136 128 -25 21 -64 56 -88 78 l-43 41 28 7 c49 12 205 0 266 -20z m3252 8 c3
-5 1 -10 -4 -10 -6 0 -11 5 -11 10 0 6 2 10 4 10 3 0 8 -4 11 -10z m-365 -39
c0 -6 -17 -23 -37 -38 -21 -15 -40 -30 -43 -33 -28 -28 -62 -52 -56 -40 4 8 0
6 -9 -5 -9 -11 -21 -19 -27 -17 -12 3 -140 -57 -149 -70 -3 -5 -10 -8 -15 -7
-5 0 -19 -2 -31 -6 -20 -6 -20 -9 -8 -22 8 -8 15 -19 15 -25 0 -11 -11 -4 -68
44 -18 16 -36 28 -41 28 -14 0 -52 -79 -71 -152 l-20 -73 6 59 c14 134 60 224
132 256 59 27 191 66 302 90 101 21 120 23 120 11z m408 -13 c-2 -7 2 -12 7
-11 6 1 11 -7 11 -18 0 -19 -1 -18 -17 3 -10 12 -15 26 -13 30 8 12 14 9 12
-4z m-618 -145 c0 -5 -18 -18 -40 -30 -27 -16 -41 -20 -46 -11 -4 6 -3 8 3 5
5 -3 25 5 44 18 39 28 39 28 39 18z m415 -125 c-10 -32 -39 -85 -157 -289
l-44 -76 -64 64 c-36 36 -60 67 -54 71 5 5 50 44 99 89 172 153 236 194 220
141z m-745 -233 c14 -19 14 -19 -2 -6 -10 7 -18 18 -18 24 0 6 1 8 3 6 1 -2 9
-13 17 -24z m-1271 -66 l-27 -10 0 -250 c0 -138 -3 -254 -6 -257 -3 -3 -6 114
-6 259 l0 264 33 2 c31 1 32 1 6 -8z m1211 -58 c-26 -24 -38 -44 -35 -54 4 -8
2 -18 -4 -22 -7 -4 -8 1 -4 12 6 16 4 16 -17 -2 -67 -57 -280 -277 -275 -285
5 -8 -12 -25 -26 -25 -12 0 -99 -83 -99 -94 0 -5 8 -15 18 -20 9 -6 13 -10 7
-10 -5 0 -19 6 -30 15 -19 14 -8 26 236 269 140 140 258 255 262 255 4 0 -10
-17 -33 -39z m-2021 -7 c14 -12 -19 -1 -35 12 -18 14 -18 14 6 3 14 -6 27 -13
29 -15z m2098 10 c-3 -3 -12 -4 -19 -1 -8 3 -5 6 6 6 11 1 17 -2 13 -5z
m-1160 -54 c-3 -22 -2 -38 3 -35 4 2 10 -41 12 -98 6 -103 13 -141 28 -132 12
7 22 93 13 107 -5 8 -10 -6 -14 -37 l-6 -50 -1 60 c-2 42 3 68 15 84 9 14 11
21 5 17 -7 -4 -12 -1 -12 9 0 9 4 14 9 10 6 -3 12 16 14 42 2 27 4 -50 5 -169
l2 -218 -32 7 c-18 3 -37 9 -42 14 -9 8 -21 391 -12 414 11 29 19 14 13 -25z
m-99 -192 c-2 -220 -2 -221 -9 -88 -4 74 -8 146 -10 160 -3 27 11 150 17 150
2 0 3 -100 2 -222z m1279 176 c-16 -14 -31 -23 -35 -19 -4 4 -2 10 4 12 6 2
20 10 30 18 31 23 31 17 1 -11z m-1308 -19 c5 2 6 -8 3 -23 l-6 -27 -7 25 c-4
14 -7 34 -7 45 1 16 2 16 5 -3 2 -12 8 -20 12 -17z m1391 1 c0 -2 -7 -9 -15
-16 -13 -11 -14 -10 -9 4 5 14 24 23 24 12z m-1233 -43 c-3 -10 -5 -4 -5 12 0
17 2 24 5 18 2 -7 2 -21 0 -30z m1096 22 c-3 -9 -8 -14 -10 -11 -3 3 -2 9 2
15 9 16 15 13 8 -4z m81 -41 c3 -8 2 -12 -4 -9 -6 3 -10 10 -10 16 0 14 7 11
14 -7z m-31 -19 c-3 -9 -8 -14 -10 -11 -3 3 -2 9 2 15 9 16 15 13 8 -4z m147
-19 c0 -2 -8 -10 -17 -17 -16 -13 -17 -12 -4 4 13 16 21 21 21 13z m-300 -29
c0 -2 -10 -12 -22 -23 l-23 -19 19 23 c18 21 26 27 26 19z m82 -30 c-12 -13
-19 -27 -15 -32 5 -4 2 -5 -4 -1 -10 5 -9 13 3 32 9 13 21 24 27 24 6 0 1 -10
-11 -23z m-1887 -67 c26 -28 15 -31 -12 -3 -12 13 -19 23 -14 23 4 0 16 -9 26
-20z m73 -64 c22 -19 23 -19 16 -1 -6 14 -4 17 8 13 9 -4 21 -2 27 3 8 6 8 5
1 -3 -13 -16 -13 -48 1 -48 5 0 8 4 5 8 -2 4 4 9 15 9 27 2 37 -27 15 -42 -13
-10 -14 -14 -4 -18 7 -2 10 -7 7 -10 -3 -4 -16 1 -28 10 -18 12 -20 17 -10 24
11 7 9 9 -6 9 -20 0 -95 67 -95 85 0 5 6 3 13 -5 7 -8 23 -24 35 -34z m152
-26 c0 -5 -2 -10 -4 -10 -3 0 -8 5 -11 10 -3 6 -1 10 4 10 6 0 11 -4 11 -10z
m43 -51 c10 -11 15 -24 11 -27 -4 -4 -9 -1 -11 6 -3 7 -11 19 -20 27 -8 8 -11
15 -6 15 5 0 17 -9 26 -21z m-240 -7 c15 -16 15 -18 -1 -18 -10 0 -18 8 -18
18 0 10 1 18 2 18 0 0 8 -8 17 -18z m226 -18 c2 -2 -10 -4 -27 -4 -18 0 -32 5
-32 10 0 9 47 4 59 -6z m381 -4 c-13 -9 -13 -10 1 -10 8 0 20 5 27 12 9 9 12
9 12 0 0 -12 -31 -32 -49 -32 -6 0 -11 9 -11 20 0 12 7 20 18 20 14 0 15 -2 2
-10z m-580 -15 c0 -2 -10 -9 -22 -15 -22 -11 -22 -10 -4 4 21 17 26 19 26 11z
m-68 -38 c-14 -6 -26 -7 -32 -1 -5 5 4 9 23 10 30 1 30 1 9 -9z m1700 -54
c-26 -36 -72 -79 -72 -67 0 5 -4 3 -8 -4 -6 -9 -16 -4 -37 18 -16 16 -23 30
-17 30 7 0 12 -3 12 -8 0 -4 10 -13 21 -21 20 -12 21 -11 15 4 -5 14 -4 15 7
7 10 -9 22 -3 50 28 42 46 57 53 29 13z m-1500 -10 c39 -35 9 -103 -46 -103
-43 0 -68 20 -68 54 0 57 71 88 114 49z m658 -3 c39 -39 12 -100 -44 -100 -40
0 -63 17 -71 51 -14 56 72 92 115 49z m510 -265 l0 -285 -55 0 c-52 0 -55 1
-55 25 0 31 -1 31 -46 0 -55 -38 -137 -35 -192 5 -63 46 -85 96 -80 191 3 68
7 82 34 116 61 76 158 96 241 48 l43 -26 0 99 c0 54 3 102 7 105 3 4 28 7 55
7 l48 0 0 -285z m-2160 -5 l0 -280 -55 0 -55 0 0 188 c0 104 -3 230 -6 280
l-7 92 62 0 61 0 0 -280z m710 184 l0 -77 45 5 45 6 0 -49 0 -48 -47 -3 -48
-3 3 -80 c3 -71 6 -83 28 -102 14 -13 36 -23 50 -23 22 0 24 -4 24 -46 l0 -47
-60 6 c-112 10 -149 62 -150 210 0 83 -1 87 -22 87 -38 0 -50 14 -46 56 3 37
5 39 42 42 l38 3 -6 70 -7 69 55 0 56 0 0 -76z m3437 -66 c-3 -8 -6 -5 -6 6
-1 11 2 17 5 13 3 -3 4 -12 1 -19z m-4516 1 c19 -7 42 -19 52 -27 15 -13 17
-13 17 0 0 20 21 28 71 28 l39 0 0 -200 0 -200 -55 0 c-52 0 -55 1 -55 25 l0
26 -43 -26 c-53 -30 -114 -33 -172 -6 -50 23 -70 45 -90 100 -60 170 78 333
236 280z m720 -18 l30 -23 6 21 c4 18 13 21 54 21 l49 0 0 -200 0 -200 -50 0
c-47 0 -50 2 -50 25 0 31 -4 31 -43 3 -47 -33 -160 -33 -202 0 -101 79 -109
235 -18 324 21 20 49 42 63 47 41 17 126 7 161 -18z m649 -182 l0 -199 -54 0
-54 0 -4 198 c-3 108 -4 199 -2 202 1 3 27 3 58 2 l56 -4 0 -199z m141 201
c19 0 29 -5 29 -15 0 -20 8 -19 55 5 84 43 182 12 222 -70 19 -39 22 -64 24
-180 l3 -135 -52 -3 c-38 -2 -52 1 -52 10 -6 252 -11 278 -61 298 -35 15 -72
7 -99 -22 -18 -20 -20 -35 -20 -155 l0 -133 -55 0 -55 0 0 206 c0 184 2 205
16 200 9 -3 29 -6 45 -6z m1734 -10 c34 -17 40 -18 48 -5 5 10 24 15 56 15
l47 0 2 -200 2 -200 -55 0 c-52 0 -55 1 -55 25 0 30 -3 31 -40 3 -39 -28 -125
-36 -167 -15 -45 24 -101 91 -109 132 -3 20 -4 59 -2 86 13 133 158 217 273
159z m693 -37 l3 -53 -49 0 c-39 0 -53 -5 -73 -26 -23 -24 -24 -32 -24 -147
l0 -122 -53 -3 -52 -3 2 198 3 198 50 0 c44 0 50 -3 55 -24 5 -22 6 -23 20 -6
19 23 69 45 95 42 17 -2 20 -11 23 -54z m254 31 c33 -17 58 -51 58 -81 0 -20
-5 -23 -36 -23 -26 0 -43 7 -60 25 -26 29 -56 32 -78 9 -36 -36 -9 -68 65 -78
67 -9 105 -29 124 -66 21 -41 19 -83 -7 -115 -30 -38 -76 -55 -151 -55 -75 0
-119 24 -149 80 l-18 35 55 3 c48 3 59 0 74 -19 21 -27 74 -30 97 -7 24 24 2
55 -49 68 -83 22 -106 31 -130 56 -106 106 60 241 205 168z m-2162 -184 l0
-200 -55 0 -55 0 0 200 0 200 55 0 55 0 0 -200z m910 170 c0 -19 -11 -42 -32
-66 -18 -21 -63 -76 -100 -123 l-67 -86 95 -3 95 -3 -3 -42 -3 -42 -165 0
-165 0 3 33 c3 23 28 63 88 138 46 58 84 110 84 115 0 5 -38 9 -85 9 l-85 0 0
43 c0 24 3 47 7 50 3 4 80 7 170 7 l163 0 0 -30z m1577 -212 c-3 -8 -6 -5 -6
6 -1 11 2 17 5 13 3 -3 4 -12 1 -19z m-934 -60 c37 -44 8 -98 -53 -98 -50 0
-79 36 -64 78 18 52 80 62 117 20z m904 -250 c-3 -8 -6 -5 -6 6 -1 11 2 17 5
13 3 -3 4 -12 1 -19z m-2832 -69 c12 -4 -25 -8 -92 -8 -74 -1 -114 -5 -119
-13 -5 -7 -2 -9 8 -5 9 3 24 -1 35 -8 17 -13 17 -14 1 -15 -10 0 -18 4 -18 8
0 10 -46 10 -56 0 -4 -5 -14 -8 -23 -8 -14 0 -14 2 -1 10 11 7 5 8 -20 4 -19
-4 -32 -3 -28 1 4 5 25 11 45 15 l38 8 -47 1 c-38 1 -48 -3 -53 -19 -3 -11
-14 -20 -23 -20 -15 1 -15 2 2 15 20 15 17 18 -29 28 -23 5 -44 -12 -37 -31 5
-16 -15 -16 -22 1 -4 6 -4 2 -2 -9 3 -17 -1 -21 -18 -17 -17 4 -18 3 -6 -7 13
-9 12 -10 -5 -8 -12 2 -19 -2 -17 -10 1 -8 -2 -11 -9 -6 -9 5 -10 2 -6 -10 4
-9 3 -15 -2 -12 -11 7 -73 -49 -64 -57 3 -4 0 -7 -8 -7 -8 0 -22 -9 -31 -19
-9 -10 -24 -23 -34 -29 -16 -9 -16 -12 -4 -29 13 -16 13 -17 -1 -6 -13 10 -27
0 -93 -66 -63 -64 -75 -80 -63 -89 8 -7 18 -8 22 -4 5 4 5 1 1 -6 -7 -11 -11
-10 -25 2 -15 13 -20 10 -60 -29 -25 -25 -41 -48 -37 -52 4 -4 11 -1 16 7 6 8
10 10 10 4 0 -6 -9 -19 -20 -29 -18 -17 -20 -17 -14 -2 3 9 3 17 -1 17 -13 0
-78 -71 -71 -77 4 -4 13 3 22 15 8 12 19 22 25 22 5 0 -1 -11 -13 -25 -12 -14
-28 -23 -35 -21 -7 3 -25 -4 -38 -16 -19 -16 -22 -24 -13 -31 9 -6 8 -7 -3 -4
-19 6 -67 -38 -55 -50 4 -4 12 -1 17 7 9 13 10 13 6 0 -2 -9 -14 -14 -26 -13
-12 2 -20 0 -17 -5 2 -4 -2 -16 -10 -27 -10 -13 -14 -15 -14 -4 0 8 -16 -3
-35 -25 -19 -21 -35 -42 -35 -47 0 -5 -4 -9 -10 -9 -5 0 -10 5 -10 12 0 14
730 749 785 790 l39 29 191 -2 c104 -1 199 -5 210 -10z m125 0 c0 -6 -7 -9
-15 -6 -8 4 -17 2 -20 -4 -7 -10 -53 -5 -64 7 -3 4 1 5 9 2 8 -3 24 -2 35 3
29 11 55 11 55 -2z m-26 -21 c-20 -33 -177 -208 -182 -203 -3 3 16 27 42 54
27 27 45 54 42 60 -4 6 -1 9 6 6 7 -2 30 18 51 45 35 46 58 67 41 38z m-484
-30 c0 -19 -16 -5 -17 14 -2 18 0 20 7 8 5 -8 10 -18 10 -22z m433 7 c-3 -9
-8 -14 -10 -11 -3 3 -2 9 2 15 9 16 15 13 8 -4z m-267 -22 c8 -3 14 -1 14 5 0
12 47 3 59 -12 7 -8 4 -12 -12 -13 -16 -2 -18 0 -8 7 10 5 1 8 -25 7 -21 0
-61 1 -89 2 -27 1 -60 0 -72 -3 -13 -3 -23 -1 -23 4 0 18 112 20 156 3z m-172
-14 c-3 -6 -2 -14 4 -18 6 -3 -7 -21 -31 -40 l-42 -34 32 34 c25 27 30 38 22
52 -8 13 -6 17 6 17 9 0 13 -5 9 -11z m-35 -12 c8 -11 6 -18 -12 -33 l-22 -19
19 23 c11 12 14 22 8 22 -7 0 -12 5 -12 10 0 14 5 13 19 -3z m311 -21 c0 -3
-4 -8 -10 -11 -5 -3 -10 -1 -10 4 0 6 5 11 10 11 6 0 10 -2 10 -4z m-44 -48
c-9 -12 -16 -19 -16 -15 0 11 24 47 28 42 2 -2 -3 -14 -12 -27z m-308 -3 c-3
-3 -9 2 -12 12 -6 14 -5 15 5 6 7 -7 10 -15 7 -18z m412 -1 c0 -8 -19 -13 -24
-6 -3 5 1 9 9 9 8 0 15 -2 15 -3z m-205 -98 c-41 -42 -79 -76 -83 -76 -3 0 29
36 73 80 43 44 81 78 83 75 2 -2 -31 -38 -73 -79z m-225 60 c0 -2 -8 -10 -17
-17 -16 -13 -17 -12 -4 4 13 16 21 21 21 13z m370 -59 c0 -2 -12 -14 -27 -28
l-26 -24 19 27 c16 23 34 36 34 25z m-480 -21 c0 -2 -8 -10 -17 -17 -16 -13
-17 -12 -4 4 13 16 21 21 21 13z m737 -113 c-2 -21 -4 -6 -4 32 0 39 2 55 4
38 2 -18 2 -50 0 -70z m-348 43 c-18 -20 -34 -34 -36 -32 -2 2 10 20 28 40 18
19 35 33 37 31 2 -2 -11 -20 -29 -39z m409 -223 c-1 -198 -3 -222 -9 -143 -5
52 -8 102 -8 110 3 115 11 270 15 270 2 0 3 -107 2 -237z m-558 217 c-13 -9
-13 -11 0 -20 9 -6 10 -10 3 -10 -15 0 -26 17 -18 30 3 6 12 10 18 10 7 0 6
-4 -3 -10z m-290 -4 c0 -2 -8 -10 -17 -17 -16 -13 -17 -12 -4 4 13 16 21 21
21 13z m-40 -12 c0 -8 -19 -13 -24 -6 -3 5 1 9 9 9 8 0 15 -2 15 -3z m1057
-101 c-2 -21 -4 -4 -4 37 0 41 2 58 4 38 2 -21 2 -55 0 -75z m-767 78 c-5 -11
-19 -26 -30 -34 -11 -8 -17 -17 -13 -20 3 -4 13 -1 22 6 14 10 14 10 3 -5 -8
-10 -20 -14 -29 -11 -12 5 -14 3 -8 -7 5 -9 4 -11 -3 -6 -7 4 -22 -5 -36 -21
-19 -22 -22 -31 -13 -43 10 -13 10 -13 -5 -2 -11 9 -18 10 -23 2 -3 -5 -10
-10 -15 -10 -5 0 28 38 72 85 45 47 83 85 85 85 2 0 -1 -9 -7 -19z m140 -1 c0
-5 -4 -10 -10 -10 -5 0 -10 5 -10 10 0 6 5 10 10 10 6 0 10 -4 10 -10z m-436
-15 c-10 -7 -22 -11 -27 -8 -12 7 0 19 23 20 21 2 21 1 4 -12z m396 -30 c-13
-14 -26 -23 -28 -20 -7 7 29 45 41 45 6 0 0 -11 -13 -25z m-471 -51 c-23 -23
-36 -30 -36 -20 0 8 3 13 7 11 4 -2 18 9 31 24 13 16 26 27 29 25 2 -3 -12
-21 -31 -40z m407 5 c3 -6 -4 -21 -17 -33 l-23 -21 19 23 c16 20 17 25 5 32
-9 6 -10 10 -3 10 6 0 15 -5 19 -11z m501 -216 c-1 -43 -3 -8 -3 77 0 85 2
120 3 78 2 -43 2 -113 0 -155z m-970 150 c-14 -14 -19 -15 -29 -4 -11 10 -10
11 4 6 12 -5 20 -1 24 9 4 9 9 14 12 11 3 -3 -2 -13 -11 -22z m3464 4 c-10 -9
-11 -8 -5 6 3 10 9 15 12 12 3 -3 0 -11 -7 -18z m-3041 -1 c0 -2 -8 -10 -17
-17 -16 -13 -17 -12 -4 4 13 16 21 21 21 13z m-161 -23 c-25 -32 -59 -64 -59
-56 0 7 61 73 68 73 3 0 -2 -8 -9 -17z m-320 -39 c-18 -19 -38 -34 -43 -34 -6
0 3 12 19 27 17 14 31 30 31 35 3 18 4 19 15 12 7 -4 -2 -19 -22 -40z m-29 11
c-7 -8 -17 -15 -23 -15 -6 0 -2 7 9 15 25 19 30 19 14 0z m470 11 c0 -2 -7 -9
-15 -16 -13 -11 -14 -10 -9 4 5 14 24 23 24 12z m-540 -20 c0 -2 -8 -10 -17
-17 -16 -13 -17 -12 -4 4 13 16 21 21 21 13z m11 -34 c-6 -2 -9 -8 -6 -12 3
-5 1 -11 -4 -14 -10 -7 -9 8 4 38 6 15 10 16 13 6 3 -8 0 -16 -7 -18z m299
-39 c-25 -26 -48 -49 -53 -51 -4 -2 -4 -9 -1 -14 5 -7 2 -8 -5 -3 -9 5 3 23
40 61 66 67 80 71 19 7z m180 43 c0 -2 -8 -10 -17 -17 -16 -13 -17 -12 -4 4
13 16 21 21 21 13z m-463 -39 c-33 -28 -34 -49 -4 -78 l22 -23 -25 16 c-14 8
-27 29 -31 46 -4 18 -3 29 2 26 5 -2 14 4 21 16 7 11 19 20 27 20 9 0 4 -9
-12 -23z m-70 -29 c-3 -8 -6 -5 -6 6 -1 11 2 17 5 13 3 -3 4 -12 1 -19z m3548
-65 c-21 -38 -47 -77 -58 -88 l-21 -20 15 20 c9 11 33 50 53 88 21 37 40 67
43 67 2 0 -12 -30 -32 -67z m-3135 51 c0 -8 -19 -13 -24 -6 -3 5 1 9 9 9 8 0
15 -2 15 -3z m9 -32 c-19 -21 -36 -37 -38 -36 -5 5 53 72 63 73 4 1 -7 -16
-25 -37z m-1321 -17 c-3 -3 -9 2 -12 12 -6 14 -5 15 5 6 7 -7 10 -15 7 -18z
m56 -11 c9 -20 15 -38 13 -41 -2 -2 -10 10 -17 27 -12 30 -30 41 -30 18 0 -6
-3 -9 -6 -5 -8 8 3 37 14 37 4 0 16 -16 26 -36z m1116 22 c0 -2 -8 -10 -17
-17 -16 -13 -17 -12 -4 4 13 16 21 21 21 13z m-229 -23 c13 -16 12 -17 -3 -4
-10 7 -18 15 -18 17 0 8 8 3 21 -13z m-857 -9 c3 -8 2 -12 -4 -9 -6 3 -10 10
-10 16 0 14 7 11 14 -7z m793 0 c-3 -3 -12 -4 -19 -1 -8 3 -5 6 6 6 11 1 17
-2 13 -5z m143 -15 c17 -13 18 -17 5 -10 -33 17 -51 31 -40 31 6 0 21 -10 35
-21z m116 -1 c4 -7 3 -10 -1 -5 -5 4 -18 -1 -29 -10 -21 -18 -21 -18 -2 5 22
26 23 26 32 10z m119 -8 c-10 -11 -22 -20 -27 -20 -10 0 24 38 36 39 5 1 1 -8
-9 -19z m-475 0 c0 -5 -2 -10 -4 -10 -3 0 -8 5 -11 10 -3 6 -1 10 4 10 6 0 11
-4 11 -10z m-810 -16 c0 -8 -4 -12 -10 -9 -5 3 -10 10 -10 16 0 5 5 9 10 9 6
0 10 -7 10 -16z m156 -30 c21 -36 24 -48 14 -57 -10 -9 -11 -9 -6 1 5 8 -3 29
-18 52 -14 22 -26 42 -26 45 0 14 12 1 36 -41z m-139 4 c-3 -7 -5 -2 -5 12 0
14 2 19 5 13 2 -7 2 -19 0 -25z m723 -3 c0 -5 -5 -3 -10 5 -5 8 -10 20 -10 25
0 6 5 3 10 -5 5 -8 10 -19 10 -25z m84 21 c-3 -8 -12 -17 -20 -20 -18 -7 -18
-1 2 18 19 20 25 20 18 2z m270 -1 c3 -8 1 -15 -4 -15 -6 0 -10 7 -10 15 0 8
2 15 4 15 2 0 6 -7 10 -15z m-369 -83 c2 -41 0 -51 -6 -34 -9 24 -10 106 -1
97 3 -3 6 -31 7 -63z m382 36 c-3 -8 -6 -5 -6 6 -1 11 2 17 5 13 3 -3 4 -12 1
-19z m79 -33 c-20 -20 -36 -34 -36 -31 0 9 62 77 67 72 2 -2 -12 -21 -31 -41z
m-1275 25 c4 -34 3 -68 -2 -64 -4 2 -10 -3 -13 -12 -4 -9 -9 -15 -11 -12 -3 3
2 20 12 38 12 24 13 35 5 38 -7 2 -12 8 -12 13 0 12 20 12 21 -1z m884 -30
c-9 -41 -17 -33 -9 9 4 17 9 30 11 27 3 -2 2 -19 -2 -36z m3599 28 c-50 -86
-111 -164 -184 -238 -51 -51 -51 -52 -9 -5 55 61 102 121 153 198 22 31 41 57
43 57 2 0 1 -6 -3 -12z m-3364 -28 c0 -22 -10 -40 -36 -65 -36 -36 -41 -37
-106 -37 -21 0 -38 -4 -38 -9 0 -6 -4 -7 -10 -4 -5 3 -10 12 -10 19 0 10 13
12 50 8 27 -2 62 1 78 7 31 13 62 58 62 90 0 12 2 21 5 21 3 0 5 -14 5 -30z
m107 -19 c0 -11 -5 -18 -9 -15 -4 3 -5 11 -1 19 7 21 12 19 10 -4z m-929 -21
c-7 -10 -14 -17 -17 -15 -4 4 18 35 25 35 2 0 -1 -9 -8 -20z m-260 -15 c-3 -3
-9 2 -12 12 -6 14 -5 15 5 6 7 -7 10 -15 7 -18z m45 -28 c-7 -14 -12 -17 -17
-9 -4 7 -2 12 3 12 6 0 11 7 11 15 0 9 -6 12 -15 9 -8 -4 -15 -2 -15 4 0 6 6
12 13 15 18 6 31 -22 20 -46z m267 -12 c0 -5 -9 1 -20 15 -11 14 -20 30 -20
35 0 6 9 -1 20 -15 11 -14 20 -29 20 -35z m1889 1 c-9 -8 -10 -7 -5 7 3 10 7
26 7 35 1 9 4 6 6 -7 3 -13 -1 -28 -8 -35z m-2219 40 c0 -2 3 -13 7 -23 6 -16
5 -16 -10 -4 -12 9 -17 10 -17 2 0 -6 12 -16 26 -21 17 -7 24 -15 20 -25 -7
-20 4 -19 18 1 11 14 13 14 27 -3 13 -16 12 -17 -3 -5 -14 11 -17 9 -25 -14
l-9 -27 -32 43 c-34 47 -41 80 -17 80 8 0 15 -2 15 -4z m880 -43 c-11 -17 -11
-17 -6 0 3 10 7 26 7 35 1 15 2 15 6 0 2 -10 -1 -25 -7 -35z m-51 21 c4 3 13
0 21 -6 12 -8 12 -9 -2 -4 -10 3 -18 1 -18 -4 0 -12 41 -35 57 -32 7 2 17 -6
23 -17 9 -17 8 -19 -5 -15 -8 3 -12 11 -8 17 4 7 0 8 -11 4 -20 -8 -77 42 -75
65 0 10 2 10 6 0 2 -6 8 -10 12 -8z m-728 -81 c-12 -20 -14 -14 -5 12 4 9 9
14 11 11 3 -2 0 -13 -6 -23z m2066 -5 c-3 -8 -6 -5 -6 6 -1 11 2 17 5 13 3 -3
4 -12 1 -19z m-2097 3 c0 -6 -5 -13 -11 -17 -8 -4 -8 -9 0 -17 6 -6 11 -15 11
-21 0 -5 -6 -1 -14 9 -14 19 -11 55 5 55 5 0 9 -4 9 -9z m987 3 c-3 -3 -12 -4
-19 -1 -8 3 -5 6 6 6 11 1 17 -2 13 -5z m-641 -42 c-6 -5 -36 23 -36 34 0 4 9
-1 20 -11 11 -10 18 -20 16 -23z m1871 22 c-3 -3 -12 -4 -19 -1 -8 3 -5 6 6 6
11 1 17 -2 13 -5z m-2197 -14 c0 -5 -2 -10 -4 -10 -3 0 -8 5 -11 10 -3 6 -1
10 4 10 6 0 11 -4 11 -10z m2077 -202 c-1 -40 -3 -8 -3 72 0 80 2 112 3 73 2
-40 2 -106 0 -145z m60 130 c-2 -13 -4 -3 -4 22 0 25 2 35 4 23 2 -13 2 -33 0
-45z m-1789 27 c-3 -3 -9 2 -12 12 -6 14 -5 15 5 6 7 -7 10 -15 7 -18z m-293
-68 c13 -26 13 -28 0 -17 -8 7 -15 17 -15 22 0 6 -11 19 -25 30 -14 11 -25 24
-25 30 0 17 48 -32 65 -65z m355 18 c13 -14 21 -25 18 -25 -2 0 -15 11 -28 25
-13 14 -21 25 -18 25 2 0 15 -11 28 -25z m-312 -40 c-3 -3 -9 2 -12 12 -6 14
-5 15 5 6 7 -7 10 -15 7 -18z m353 -12 c13 -16 12 -17 -3 -4 -10 7 -18 15 -18
17 0 8 8 3 21 -13z m-340 -23 c6 0 7 5 3 12 -4 7 -3 8 4 4 6 -4 9 -13 6 -21
-5 -11 -10 -12 -24 -3 -10 7 -16 17 -13 22 4 6 8 5 11 -2 2 -7 8 -12 13 -12z
m3953 6 c-3 -8 -13 -17 -22 -21 -13 -5 -13 -2 3 15 21 24 26 25 19 6z m-3917
-48 c-1 -16 3 -23 14 -22 9 1 16 -6 15 -15 0 -9 5 -15 12 -13 14 2 16 -4 3
-12 -4 -3 -26 13 -47 36 -21 23 -31 39 -21 35 9 -3 17 -2 17 3 0 6 2 10 5 10
3 0 4 -10 2 -22z m24 -1 c-10 -9 -11 -8 -5 6 3 10 9 15 12 12 3 -3 0 -11 -7
-18z m1966 -54 c-2 -16 -4 -5 -4 22 0 28 2 40 4 28 2 -13 2 -35 0 -50z m100
-5 c-2 -13 -4 -3 -4 22 0 25 2 35 4 23 2 -13 2 -33 0 -45z m1723 12 c-119
-106 -236 -194 -342 -259 -65 -39 -41 -16 30 30 92 60 206 147 277 213 33 30
65 55 70 55 6 0 -10 -17 -35 -39z m-3405 11 c3 -5 2 -12 -3 -15 -5 -3 -9 1 -9
9 0 17 3 19 12 6z m-187 -186 c7 3 10 1 7 -5 -3 -5 5 -18 17 -29 12 -12 18
-21 14 -21 -9 0 -206 191 -206 200 0 4 35 -28 78 -72 42 -43 83 -76 90 -73z
m261 121 c9 -11 9 -16 -1 -22 -7 -4 -10 -4 -6 1 4 4 3 14 -3 22 -6 7 -9 13 -6
13 2 0 10 -6 16 -14z m42 -33 c12 -16 12 -17 -2 -6 -9 7 -20 9 -24 5 -5 -4 -5
-1 -1 6 9 16 11 15 27 -5z m1406 -155 c-2 -29 -3 -6 -3 52 0 58 1 81 3 53 2
-29 2 -77 0 -105z m-1637 -4 c0 -8 -19 -13 -24 -6 -3 5 1 9 9 9 8 0 15 -2 15
-3z m25 -24 c3 -5 2 -10 -4 -10 -5 0 -13 5 -16 10 -3 6 -2 10 4 10 5 0 13 -4
16 -10z m490 -28 c-3 -3 -11 0 -18 7 -9 10 -8 11 6 5 10 -3 15 -9 12 -12z
m2610 8 c-4 -6 -25 -20 -48 -31 -49 -25 -44 -16 10 17 43 27 47 28 38 14z
m-3020 -50 c3 -6 -1 -7 -9 -4 -18 7 -21 14 -7 14 6 0 13 -4 16 -10z m2908 -15
c-29 -20 -119 -65 -129 -65 -11 1 127 77 141 79 5 0 0 -6 -12 -14z m-2788 -79
c6 -4 1 -4 -10 2 -11 6 -29 21 -40 34 -19 22 -19 22 10 -2 17 -14 35 -29 40
-34z m460 44 c3 -6 -1 -7 -9 -4 -18 7 -21 14 -7 14 6 0 13 -4 16 -10z m2171
-45 c-11 -8 -25 -15 -31 -15 -6 0 -28 -9 -50 -20 -22 -11 -46 -20 -55 -19 -13
0 -13 1 0 6 8 3 38 16 65 28 82 37 101 42 71 20z m-171 -69 c-11 -7 -36 -16
-55 -20 -33 -6 -32 -5 10 13 53 23 72 26 45 7z m-127 -41 c-8 -9 -189 -57
-194 -52 -3 2 37 16 88 30 98 27 115 30 106 22z m-1421 -21 c-3 -3 -12 -4 -19
-1 -8 3 -5 6 6 6 11 1 17 -2 13 -5z m76 -21 c-7 -2 -19 -2 -25 0 -7 3 -2 5 12
5 14 0 19 -2 13 -5z m50 -10 c-7 -2 -19 -2 -25 0 -7 3 -2 5 12 5 14 0 19 -2
13 -5z m50 -10 c-7 -2 -19 -2 -25 0 -7 3 -2 5 12 5 14 0 19 -2 13 -5z m1024 1
c-3 -3 -12 -4 -19 -1 -8 3 -5 6 6 6 11 1 17 -2 13 -5z m-964 -11 c-7 -2 -21
-2 -30 0 -10 3 -4 5 12 5 17 0 24 -2 18 -5z m920 0 c-7 -2 -19 -2 -25 0 -7 3
-2 5 12 5 14 0 19 -2 13 -5z m-806 -14 c43 -6 170 -14 283 -18 198 -8 200 -8
65 -9 -142 -2 -350 12 -415 28 -51 12 -23 12 67 -1z m751 4 c-10 -2 -26 -2
-35 0 -10 3 -2 5 17 5 19 0 27 -2 18 -5z m-103 -13 c-27 -5 -72 -8 -100 -7
l-50 0 60 7 c33 4 78 7 100 7 38 0 37 0 -10 -7z"/>
<path d="M4000 5240 c0 -5 7 -10 15 -10 8 0 15 5 15 10 0 6 -7 10 -15 10 -8 0
-15 -4 -15 -10z"/>
<path d="M4115 5220 c3 -5 8 -10 11 -10 2 0 4 5 4 10 0 6 -5 10 -11 10 -5 0
-7 -4 -4 -10z"/>
<path d="M4140 5206 c0 -2 7 -7 16 -10 8 -3 12 -2 9 4 -6 10 -25 14 -25 6z"/>
<path d="M4275 5141 c-3 -5 -2 -12 3 -15 5 -3 9 1 9 9 0 17 -3 19 -12 6z"/>
<path d="M4245 5131 c-6 -11 13 -26 22 -17 4 3 1 6 -6 6 -7 0 -9 5 -6 10 3 6
4 10 1 10 -3 0 -7 -4 -11 -9z"/>
<path d="M4321 5096 c-14 -17 1 -56 22 -56 8 0 7 4 -2 9 -12 8 -9 11 13 17 18
4 24 10 18 16 -6 6 -17 6 -31 -1 -12 -7 -21 -8 -21 -2 0 5 6 11 13 14 6 2 9 7
6 11 -3 4 -12 0 -18 -8z"/>
<path d="M3905 5060 c-16 -7 -17 -9 -3 -9 9 -1 20 4 23 9 7 11 7 11 -20 0z"/>
<path d="M4390 5039 c0 -5 -8 -6 -17 -2 -19 7 -18 5 9 -15 14 -11 18 -10 27 6
8 14 7 19 -5 19 -7 0 -14 -4 -14 -8z"/>
<path d="M3930 5036 c0 -2 9 -6 20 -9 11 -3 18 -1 14 4 -5 9 -34 13 -34 5z"/>
<path d="M4420 5017 c-14 -22 -25 -97 -14 -97 3 0 17 9 30 19 16 13 20 21 12
24 -9 3 -5 11 11 26 26 23 26 23 -5 39 -16 9 -23 7 -34 -11z m35 -6 c3 -6 -3
-15 -14 -21 -14 -7 -22 -7 -27 2 -4 6 -3 8 3 5 6 -4 13 0 17 8 6 17 12 19 21
6z"/>
<path d="M4035 4990 c3 -5 8 -10 11 -10 2 0 4 5 4 10 0 6 -5 10 -11 10 -5 0
-7 -4 -4 -10z"/>
<path d="M4065 4981 c-3 -5 -2 -12 3 -15 5 -3 9 1 9 9 0 17 -3 19 -12 6z"/>
<path d="M4325 4979 c-11 -17 1 -21 15 -4 8 9 8 15 2 15 -6 0 -14 -5 -17 -11z"/>
<path d="M4090 4966 c0 -2 7 -6 15 -10 8 -3 15 -1 15 4 0 6 -7 10 -15 10 -8 0
-15 -2 -15 -4z"/>
<path d="M4162 4926 c7 -8 16 -12 21 -9 11 7 -2 23 -19 23 -12 0 -12 -2 -2
-14z"/>
<path d="M4195 4909 c-11 -17 1 -21 15 -4 8 9 8 15 2 15 -6 0 -14 -5 -17 -11z"/>
<path d="M4290 4870 c0 -5 5 -10 11 -10 5 0 7 5 4 10 -3 6 -8 10 -11 10 -2 0
-4 -4 -4 -10z"/>
<path d="M4390 4871 c0 -15 -31 -21 -52 -10 -13 7 -18 7 -14 1 3 -6 -4 -12
-16 -14 -12 -2 -23 -9 -26 -16 -4 -12 0 -12 19 -1 23 12 23 11 9 -6 -14 -17
-14 -17 18 -1 24 13 37 14 50 6 14 -9 13 -10 -7 -4 -16 4 -21 3 -17 -5 4 -6
15 -11 24 -11 13 0 13 -2 -4 -14 -19 -14 -39 -3 -28 16 3 4 1 8 -5 8 -19 0
-20 -18 -2 -34 13 -11 21 -14 26 -7 3 6 11 11 17 11 7 0 6 -5 -1 -14 -8 -10
-9 -16 -1 -21 5 -3 10 -3 10 0 0 3 11 -6 25 -21 14 -15 25 -22 25 -16 0 6 -7
17 -15 26 -18 18 -19 32 -2 40 6 3 3 4 -8 3 -18 -2 -20 4 -19 46 1 26 0 47 -2
47 -2 0 -4 -4 -4 -9z"/>
<path d="M102 2280 c0 -14 2 -19 5 -12 2 6 2 18 0 25 -3 6 -5 1 -5 -13z"/>
<path d="M362 2090 c0 -8 4 -26 8 -40 6 -20 8 -21 8 -5 0 11 -3 29 -8 40 -5
12 -8 14 -8 5z"/>
<path d="M496 1705 c-9 -26 -7 -32 5 -12 6 10 9 21 6 23 -2 3 -7 -2 -11 -11z"/>
<path d="M266 1657 c3 -10 9 -15 12 -12 3 3 0 11 -7 18 -10 9 -11 8 -5 -6z"/>
<path d="M504 1658 c3 -15 26 -23 26 -8 0 6 -4 9 -9 6 -5 -4 -12 -1 -14 4 -3
6 -4 5 -3 -2z"/>
<path d="M261 1620 c0 -8 4 -22 9 -30 12 -18 12 -2 0 25 -6 13 -9 15 -9 5z"/>
<path d="M306 1564 c-3 -8 -1 -25 6 -37 6 -12 11 -24 11 -27 0 -16 11 -40 18
-40 13 0 11 12 -11 55 -14 27 -16 41 -9 46 7 4 8 9 1 13 -5 3 -13 -1 -16 -10z"/>
<path d="M330 1535 c0 -8 5 -15 10 -15 6 0 10 7 10 15 0 8 -4 15 -10 15 -5 0
-10 -7 -10 -15z"/>
<path d="M490 1491 c0 -6 4 -13 10 -16 6 -3 7 1 4 9 -7 18 -14 21 -14 7z"/>
<path d="M380 1441 c0 -10 -6 -21 -12 -24 -9 -2 -5 -16 15 -43 15 -22 27 -45
27 -51 0 -6 7 -16 15 -23 14 -11 14 -10 6 12 -5 14 -7 29 -3 34 4 4 2 4 -4 1
-10 -6 -24 12 -24 29 0 10 29 3 33 -8 4 -10 7 -10 18 0 17 16 19 62 3 62 -20
0 -26 -17 -9 -24 17 -6 20 -26 4 -26 -6 0 -18 7 -27 16 -15 15 -16 15 -22 -1
-5 -15 -7 -16 -19 -1 -7 9 -9 16 -3 16 13 0 23 38 11 46 -5 3 -9 -4 -9 -15z"/>
<path d="M347 1436 c-4 -10 -1 -13 9 -9 7 3 14 9 14 14 0 14 -17 10 -23 -5z"/>
<path d="M4607 4889 c3 -10 12 -19 19 -19 20 0 17 13 -5 27 -16 10 -18 9 -14
-8z"/>
<path d="M2202 4173 c-1 -61 1 -114 6 -116 4 -3 6 32 4 76 -4 141 -9 156 -10
40z"/>
<path d="M2272 3926 c7 -8 15 -12 17 -11 5 6 -10 25 -20 25 -5 0 -4 -6 3 -14z"/>
<path d="M2300 3929 c0 -5 5 -7 10 -4 6 3 10 8 10 11 0 2 -4 4 -10 4 -5 0 -10
-5 -10 -11z"/>
<path d="M1830 4065 c0 -8 2 -15 4 -15 2 0 6 7 10 15 3 8 1 15 -4 15 -6 0 -10
-7 -10 -15z"/>
<path d="M1690 3920 c0 -5 5 -10 11 -10 5 0 7 5 4 10 -3 6 -8 10 -11 10 -2 0
-4 -4 -4 -10z"/>
<path d="M1655 3895 c-20 -15 -20 -15 0 -8 18 6 19 5 6 -13 -14 -18 -14 -18 3
-2 25 22 17 44 -9 23z"/>
<path d="M1840 3860 c0 -5 5 -10 11 -10 5 0 7 5 4 10 -3 6 -8 10 -11 10 -2 0
-4 -4 -4 -10z"/>
<path d="M1665 3841 c-3 -5 -2 -12 3 -15 5 -3 9 1 9 9 0 17 -3 19 -12 6z"/>
<path d="M1795 3833 c4 -10 9 -27 12 -38 4 -16 3 -17 -6 -5 -10 13 -11 13 -11
0 0 -8 4 -21 9 -28 6 -10 10 -8 14 9 7 28 -2 79 -15 79 -6 0 -7 -8 -3 -17z"/>
<path d="M1820 3841 c0 -6 4 -13 10 -16 6 -3 7 1 4 9 -7 18 -14 21 -14 7z"/>
<path d="M1560 3816 c0 -2 7 -7 16 -10 8 -3 12 -2 9 4 -6 10 -25 14 -25 6z"/>
<path d="M1525 3750 c-3 -5 -1 -10 4 -10 6 0 11 5 11 10 0 6 -2 10 -4 10 -3 0
-8 -4 -11 -10z"/>
<path d="M1419 3673 c-13 -16 -12 -17 4 -4 9 7 17 15 17 17 0 8 -8 3 -21 -13z"/>
<path d="M1450 3670 c-9 -6 -10 -10 -3 -10 6 0 15 5 18 10 8 12 4 12 -15 0z"/>
<path d="M1731 3658 c0 -9 -4 -25 -7 -35 -5 -17 -5 -17 6 0 6 10 9 25 7 35 -4
15 -5 15 -6 0z"/>
<path d="M1420 3639 c0 -5 5 -7 10 -4 6 3 10 8 10 11 0 2 -4 4 -10 4 -5 0 -10
-5 -10 -11z"/>
<path d="M1240 3631 c0 -6 4 -13 10 -16 6 -3 7 1 4 9 -7 18 -14 21 -14 7z"/>
<path d="M1635 3580 c-3 -5 -2 -10 4 -10 5 0 13 5 16 10 3 6 2 10 -4 10 -5 0
-13 -4 -16 -10z"/>
<path d="M1598 3553 c-24 -6 -23 -23 0 -23 10 0 19 7 19 15 0 8 -1 14 -1 14
-1 -1 -9 -3 -18 -6z"/>
<path d="M1187 3509 c7 -7 15 -10 18 -7 3 3 -2 9 -12 12 -14 6 -15 5 -6 -5z"/>
<path d="M2821 3293 c-1 -18 4 -33 9 -33 12 0 12 17 0 45 -7 17 -9 15 -9 -12z"/>
<path d="M2825 3230 c3 -5 13 -10 21 -10 8 0 14 5 14 10 0 6 -9 10 -21 10 -11
0 -17 -4 -14 -10z"/>
<path d="M2846 3175 c4 -8 8 -15 10 -15 2 0 4 7 4 15 0 8 -4 15 -10 15 -5 0
-7 -7 -4 -15z"/>
<path d="M2186 3185 c4 -8 8 -15 10 -15 2 0 4 7 4 15 0 8 -4 15 -10 15 -5 0
-7 -7 -4 -15z"/>
<path d="M3109 2755 c-27 -15 -59 -69 -59 -100 0 -34 34 -87 65 -102 97 -46
190 59 143 162 -23 50 -95 69 -149 40z"/>
<path d="M773 2760 c-60 -24 -83 -135 -39 -183 45 -48 103 -48 156 1 93 85 0
229 -117 182z"/>
<path d="M1435 2737 c-57 -57 -58 -115 -5 -168 64 -65 180 -12 180 83 0 74
-42 118 -111 118 -22 0 -41 -10 -64 -33z"/>
<path d="M3969 2742 c-26 -23 -33 -38 -37 -80 -4 -49 -2 -54 31 -87 24 -24 44
-35 65 -35 75 0 140 92 112 160 -29 69 -116 91 -171 42z"/>
</g>
</svg>
